<svg xmlns="http://www.w3.org/2000/svg" fill="currentColor" viewBox="0 0 256 256" class="text-white h-12 w-auto"><path d="M128 24a104 104 0 1 0 104 104A104.11 104.11 0 0 0 128 24Zm0 192a88 88 0 1 1 88-88 88.1 88.1 0 0 1-88 88Z"></path><path d="M195.87 153.87a8 8 0 0 1-11.32 0l-24-24a8 8 0 0 1 0-11.32l24-24a8 8 0 0 1 11.32 11.32L177.31 128l18.56 18.55a8 8 0 0 1 0 11.32Z"></path><path d="M60.13 102.13a8 8 0 0 1 11.32 0l24 24a8 8 0 0 1 0 11.32l-24 24a8 8 0 0 1-11.32-11.32L78.69 128l-18.56-18.55a8 8 0 0 1 0-11.32Z"></path><path d="M128 60.13a8 8 0 0 1 8 8v48.74l24-24a8 8 0 1 1 11.32 11.32l-32 32a8 8 0 0 1-11.32 0l-32-32a8 8 0 0 1 11.32-11.32l24 24V68.13a8 8 0 0 1 8-8Z"></path><path d="M128 195.87a8 8 0 0 1-8-8v-48.74l-24 24a8 8 0 0 1-11.32-11.32l32-32a8 8 0 0 1 11.32 0l32 32a8 8 0 0 1-11.32 11.32l-24-24v48.74a8 8 0 0 1-8 8Z"></path></svg>