<svg xmlns="http://www.w3.org/2000/svg" fill="currentColor" viewBox="0 0 256 256" class="text-white h-12 w-auto"><path d="M128 24a104 104 0 1 0 104 104A104.11 104.11 0 0 0 128 24Zm0 192a88 88 0 1 1 88-88 88.1 88.1 0 0 1-88 88Z"></path><rect x="120" y="88" width="16" height="80" rx="8"></rect><path d="M104 88a8 8 0 0 1-8-8V72a8 8 0 0 1 16 0v8a8 8 0 0 1-8 8Z"></path><path d="M160 168a8 8 0 0 1-8 8v8a8 8 0 0 1-16 0v-8a8 8 0 0 1-8-8h-8a8 8 0 0 1 0-16h8a8 8 0 0 1 8-8v-8a8 8 0 0 1 16 0v8a8 8 0 0 1 8 8h8a8 8 0 0 1 0 16Z"></path></svg>